<?xml version="1.0" encoding="utf-8"?>
<!-- Generator: Adobe Illustrator 17.0.0, SVG Export Plug-In . SVG Version: 6.00 Build 0)  -->
<!DOCTYPE svg PUBLIC "-//W3C//DTD SVG 1.1//EN" "http://www.w3.org/Graphics/SVG/1.1/DTD/svg11.dtd">
<svg version="1.1" id="レイヤー_1" xmlns="http://www.w3.org/2000/svg" xmlns:xlink="http://www.w3.org/1999/xlink" x="0px"
	 y="0px" width="400.384px" height="400.384px" viewBox="0 0 400.384 400.384" enable-background="new 0 0 400.384 400.384"
	 xml:space="preserve">
<g>
	<g>
		<path fill="#C8DC67" d="M156.393,177.631c10.959,2.547,28.001-30.495,34.241-57.35s-0.684-37.351-11.643-39.898
			s-21.802,3.822-28.043,30.676C144.708,137.913,145.435,175.085,156.393,177.631z"/>
		<path fill="#3E3A39" d="M146.747,217.415c0.023-47.652,13.577-90.254,21.622-99.954c-1.826,30.85,16.289,53.457,20.336,58.1
			c2.62-0.43,5.308-0.658,8.048-0.658c27.618,0,50.007,22.913,50.007,46.727c0,19.417-14.883,33.437-35.35,37.954
			c-1.193,0.264-2.408,0.719-3.638,0.917c-1.23,0.198-2.615-1.908-3.877-1.777c-1.254,0.13-2.057,2.361-3.339,2.423
			c-1.15,0.056-2.634-0.005-3.803-0.005c-27.618,0-50.007-15.697-50.007-39.512C146.747,220.425,146.747,217.417,146.747,217.415z"
			/>
		<g>
			<g>
				<path fill="#F7F7F7" d="M234.883,241.926c-7.83,0-14.251-5.492-14.935-12.775c-0.355-3.787,0.896-7.492,3.524-10.433
					c2.609-2.921,6.268-4.737,10.301-5.115c0.512-0.048,1.031-0.072,1.542-0.072c7.83,0,14.251,5.492,14.934,12.775
					c0.356,3.787-0.896,7.492-3.523,10.433c-2.61,2.921-6.268,4.737-10.301,5.116C235.913,241.901,235.394,241.926,234.883,241.926z
					"/>
				<path fill="#3E3A39" d="M235.315,214.499c7.218,0,13.33,5.082,13.97,11.897c0.682,7.268-5.116,13.757-12.951,14.492
					c-0.489,0.046-0.972,0.068-1.452,0.068c-7.218,0-13.33-5.081-13.97-11.897c-0.682-7.269,5.116-13.757,12.951-14.492
					C234.352,214.521,234.836,214.499,235.315,214.499 M235.315,212.56c-0.541,0-1.091,0.026-1.633,0.077
					c-8.887,0.834-15.48,8.283-14.699,16.604c0.731,7.784,7.566,13.654,15.9,13.654c0.541,0,1.091-0.026,1.633-0.077
					c4.278-0.402,8.16-2.332,10.933-5.435c2.81-3.144,4.147-7.11,3.766-11.169C250.485,218.43,243.649,212.56,235.315,212.56
					L235.315,212.56z"/>
			</g>
			<path fill="#3E3A39" d="M234.042,216.469c2.556-0.24,4.994,0.275,7.067,1.343c-0.215-0.009-0.429-0.021-0.649,0
				c-2.454,0.231-4.271,2.263-4.057,4.54c0.214,2.277,2.377,3.936,4.831,3.706c2.454-0.231,4.271-2.263,4.057-4.54
				c-0.006-0.059-0.027-0.113-0.035-0.172c1.089,1.51,1.796,3.293,1.979,5.242c0.584,6.217-4.376,11.768-11.078,12.397
				c-6.702,0.629-12.609-3.901-13.192-10.118C222.38,222.649,227.34,217.099,234.042,216.469z"/>
		</g>
		<g>
			<g>
				<path fill="#F7F7F7" d="M159.516,247.595c-0.574,0-1.158-0.031-1.733-0.092c-4.029-0.425-7.666-2.285-10.241-5.236
					c-2.593-2.971-3.801-6.69-3.401-10.473c0.759-7.183,7.162-12.602,14.893-12.602c0.574,0,1.157,0.031,1.732,0.092
					c8.345,0.882,14.465,7.929,13.642,15.71C173.649,242.178,167.246,247.595,159.516,247.595
					C159.516,247.595,159.516,247.595,159.516,247.595z"/>
				<path fill="#3E3A39" d="M159.034,220.163c0.538,0,1.082,0.028,1.63,0.086c7.826,0.827,13.548,7.383,12.78,14.643
					c-0.713,6.751-6.787,11.734-13.928,11.734c-0.538,0-1.082-0.028-1.631-0.086c-7.826-0.827-13.548-7.383-12.78-14.643
					C145.819,225.146,151.892,220.163,159.034,220.163 M159.034,218.224c-8.228,0-15.045,5.79-15.856,13.469
					c-0.879,8.311,5.628,15.836,14.504,16.775c0.609,0.065,1.226,0.097,1.834,0.097c8.228,0,15.045-5.79,15.856-13.469
					c0.879-8.311-5.628-15.836-14.504-16.775C160.259,218.257,159.642,218.224,159.034,218.224L159.034,218.224z"/>
			</g>
			<path fill="#3E3A39" d="M147.153,232.113c0.657-6.21,6.616-10.672,13.31-9.964c2.543,0.269,4.824,1.248,6.642,2.695
				c-0.201-0.048-0.405-0.089-0.616-0.11c-2.452-0.259-4.634,1.374-4.874,3.649c-0.24,2.275,1.552,4.328,4.004,4.587
				c2.452,0.259,4.634-1.374,4.874-3.649c0.006-0.053,0.005-0.105,0.008-0.158c0.764,1.692,1.1,3.573,0.896,5.512
				c-0.657,6.21-6.616,10.672-13.31,9.964C151.392,243.932,146.497,238.324,147.153,232.113z"/>
		</g>
		<polygon fill="#3E3A39" points="148.827,189.301 142.312,189.098 144.241,187.538 142.632,185.783 144.437,184.269 
			142.983,182.471 149.413,183.756 		"/>
		<polygon fill="#3E3A39" points="182.244,168.702 187.364,164.668 186.89,167.104 189.25,167.413 188.841,169.733 191.111,170.175 
			185.36,173.325 		"/>
	</g>
</g>
<g>
	<path fill="#717071" d="M117.113,290.179c0,0,1.122,0,1.324,0c0.202,0,0.221,0.193,0.221,0.193v8.634
		c0,0.974-0.17,1.738-0.17,1.738h0.085c0,0,1.822-4.79,7.671-4.79c5.679,0,9.155,4.535,9.155,11.105
		c0,6.739-3.942,11.104-9.494,11.104c-5.34,0-7.332-4.789-7.332-4.789h-0.085c0,0,0.17,0.762,0.17,1.864c0,0,0,2.044,0,2.235
		c0,0.191-0.177,0.181-0.177,0.181h-1.459c0,0-0.145,0-0.145-0.18s0-26.864,0-27.078
		C116.878,290.172,117.113,290.179,117.113,290.179z M125.991,316.425c4.153,0,7.544-3.433,7.544-9.367
		c0-5.722-3.052-9.367-7.375-9.367c-3.899,0-7.544,2.755-7.544,9.409C118.616,311.805,121.032,316.425,125.991,316.425z"/>
	<path fill="#717071" d="M148.693,295.954c5.765,0,8.646,4.535,8.646,9.663c0,0.29-0.021,0.664-0.057,0.903
		c-0.034,0.225-0.236,0.242-0.236,0.242h-16.61c0,0-0.177,0.039-0.175,0.195c0.062,6.184,4.205,9.468,9.069,9.468
		c3.491,0,5.808-1.988,6.421-2.524c0.162-0.142,0.268,0.036,0.268,0.036l0.733,1.115c0,0,0.138,0.189-0.046,0.341
		c-0.705,0.583-3.435,2.77-7.375,2.77c-5.976,0-10.935-4.323-10.935-11.062C138.394,299.938,143.268,295.954,148.693,295.954z
		 M155.462,304.869c-0.258-5.005-3.349-7.262-6.812-7.262c-3.849,0-7.451,2.47-8.234,7.31c-0.027,0.166,0.164,0.191,0.164,0.191
		h14.68C155.26,305.108,155.474,305.094,155.462,304.869z"/>
	<path fill="#717071" d="M168.53,324.817c4.535,0,8.053-2.161,8.053-7.29v-2.458c0-0.975,0.17-1.738,0.17-1.738h-0.085
		c-1.272,2.586-3.603,4.323-7.12,4.323c-5.51,0-9.41-4.323-9.41-10.935c0-6.611,3.603-10.765,9.113-10.765
		c6.018,0,7.374,4.154,7.374,4.154h0.085c0,0-0.127-0.297-0.127-0.805c0,0,0-2.536,0-2.693c0-0.157,0.16-0.147,0.16-0.147h1.459
		c0,0,0.162,0.013,0.162,0.181c0,0.168,0,20.883,0,20.883c0,6.484-4.663,9.028-9.706,9.028c-2.256,0-4.433-0.556-6.453-1.552
		c-0.067-0.033-0.194-0.117-0.09-0.308c0.104-0.19,0.583-1.062,0.652-1.207c0.069-0.144,0.141-0.122,0.25-0.066
		C163.64,323.741,165.931,324.817,168.53,324.817z M176.625,306.719c0-6.824-3.221-9.027-7.374-9.027
		c-4.535,0-7.247,3.305-7.247,9.027c0,5.722,3.136,9.198,7.671,9.198C173.404,315.917,176.625,313.586,176.625,306.719z"/>
	<path fill="#717071" d="M183.97,296.462h1.459c0,0,0.171,0.012,0.171,0.203c0,0.18,0,18.704,0,20.797
		c0,0.192-0.16,0.192-0.16,0.192h-1.459c0,0-0.162,0-0.162-0.203c0-2.151,0-20.704,0-20.842
		C183.82,296.464,183.97,296.462,183.97,296.462z"/>
	<path fill="#717071" d="M191.175,296.462h1.404c0,0,0.192,0.012,0.192,0.203s0,3.526,0,3.526c0,0.975-0.17,1.738-0.17,1.738h0.085
		c0.72-1.992,3.688-5.976,8.985-5.976c5.51,0,6.994,3.264,6.994,8.265c0,0,0,12.964,0,13.199c0,0.235-0.205,0.236-0.205,0.236
		h-1.392c0,0-0.184,0.011-0.184-0.202c0-0.214,0-12.597,0-12.597c0-3.688-0.466-7.163-5.213-7.163c-3.984,0-7.501,2.797-8.561,6.739
		c-0.254,0.889-0.339,1.864-0.339,2.882c0,0,0,9.881,0,10.117s-0.203,0.225-0.203,0.225h-1.381c0,0-0.196,0-0.196-0.214
		c0-2.2,0-20.628,0-20.797C190.99,296.464,191.175,296.462,191.175,296.462z"/>
	<path fill="#717071" d="M213.654,296.462h1.404c0,0,0.192,0.012,0.192,0.203s0,3.526,0,3.526c0,0.975-0.17,1.738-0.17,1.738h0.085
		c0.72-1.992,3.688-5.976,8.985-5.976c5.51,0,6.994,3.264,6.994,8.265c0,0,0,12.964,0,13.199c0,0.235-0.205,0.236-0.205,0.236
		h-1.392c0,0-0.184,0.011-0.184-0.202c0-0.214,0-12.597,0-12.597c0-3.688-0.466-7.163-5.213-7.163c-3.984,0-7.501,2.797-8.561,6.739
		c-0.254,0.889-0.339,1.864-0.339,2.882c0,0,0,9.881,0,10.117s-0.203,0.225-0.203,0.225h-1.381c0,0-0.196,0-0.196-0.214
		c0-2.2,0-20.628,0-20.797C213.469,296.464,213.654,296.462,213.654,296.462z"/>
	<path fill="#717071" d="M258.83,296.462h1.358c0,0,0.228,0.012,0.228,0.203c0,0.191,0,3.823,0,3.823c0,0.975-0.17,1.738-0.17,1.738
		h0.085c1.06-3.264,3.433-5.934,6.782-5.934c0.425,0,0.832,0.055,1.054,0.094c0.175,0.031,0.175,0.222,0.175,0.222v1.381
		c0,0,0,0.213-0.232,0.178c-0.191-0.029-0.474-0.052-0.743-0.052c-3.306,0-5.383,2.797-6.315,5.934
		c-0.466,1.484-0.636,3.051-0.636,4.45c0,0,0,8.728,0,8.941s-0.206,0.214-0.206,0.214h-1.392c0,0-0.182,0-0.182-0.214
		c0-2.201,0-20.639,0-20.797C258.636,296.475,258.83,296.462,258.83,296.462z"/>
	<path fill="#717071" d="M270.55,313.914c0.593,0.571,2.841,2.511,6.415,2.511c2.585,0,4.874-1.356,4.874-3.984
		c0-5.382-11.655-3.857-11.655-10.765c0-3.772,3.179-5.722,6.782-5.722c3.597,0,5.541,1.595,6.105,2.117
		c0.192,0.178,0.034,0.353,0.034,0.353l-0.794,1.08c0,0-0.136,0.17-0.301,0.01c-0.506-0.491-2.216-1.822-5.171-1.822
		c-2.417,0-4.79,1.102-4.79,3.857c0,5.51,11.655,3.857,11.655,10.892c0,3.391-2.882,5.722-6.782,5.722
		c-4.392,0-6.882-2.244-7.514-2.881c-0.197-0.199-0.004-0.352-0.004-0.352l0.857-1.016
		C270.261,313.914,270.389,313.759,270.55,313.914z"/>
	<path fill="#717071" d="M245.889,295.954c5.765,0,8.646,4.535,8.646,9.663c0,0.29-0.021,0.664-0.057,0.903
		c-0.034,0.225-0.236,0.242-0.236,0.242h-16.61c0,0-0.177,0.039-0.175,0.195c0.062,6.184,4.205,9.468,9.069,9.468
		c3.491,0,5.808-1.988,6.421-2.524c0.162-0.142,0.268,0.036,0.268,0.036l0.733,1.115c0,0,0.138,0.189-0.046,0.341
		c-0.705,0.583-3.435,2.77-7.375,2.77c-5.976,0-10.935-4.323-10.935-11.062C235.59,299.938,240.464,295.954,245.889,295.954z
		 M252.658,304.869c-0.258-5.005-3.349-7.262-6.812-7.262c-3.849,0-7.451,2.47-8.234,7.31c-0.027,0.166,0.164,0.191,0.164,0.191
		h14.68C252.456,305.108,252.67,305.094,252.658,304.869z"/>
</g>
<g>
	<path fill="#080102" d="M283.325,327.932c0,0.38-0.135,0.703-0.407,0.969c-0.273,0.265-0.596,0.399-0.97,0.399
		c-0.254,0-0.484-0.06-0.693-0.181c-0.209-0.12-0.373-0.285-0.494-0.494c-0.121-0.208-0.18-0.439-0.18-0.693
		c0-0.374,0.132-0.697,0.398-0.97c0.265-0.272,0.588-0.408,0.969-0.408c0.375,0,0.698,0.136,0.97,0.408
		C283.19,327.235,283.325,327.558,283.325,327.932"/>
	<path fill="#080102" d="M249.652,335.266c0.248-0.166,0.496,0.056,0.496,0.276v1.185c0,0.221-0.168,0.469-0.373,0.55
		c0,0-0.29,0.116-0.781,0.24c-0.49,0.125-0.959,0.187-1.407,0.187c-1.938,0-2.904-0.946-2.904-2.837v-2.631
		c0-0.221-0.181-0.401-0.402-0.401h-0.414c-0.221,0-0.402-0.105-0.402-0.236c0-0.129,0.127-0.364,0.281-0.521l3.044-3.102
		c0.154-0.157,0.349-0.286,0.434-0.286c0.083,0,0.152,0.18,0.152,0.402v1.474c0,0.221,0.181,0.402,0.402,0.402h1.766
		c0.221,0,0.402,0.18,0.402,0.402v1.064c0,0.22-0.18,0.401-0.402,0.401h-1.766c-0.22,0-0.402,0.18-0.402,0.401v1.632
		c0,0.221,0.007,0.581,0.014,0.802c0,0,0.004,0.111,0.039,0.285c0.035,0.174,0.134,0.32,0.295,0.437
		c0.162,0.118,0.407,0.176,0.736,0.176C248.838,335.57,249.281,335.489,249.652,335.266"/>
	<path fill="#080102" d="M280.605,337.507v-7.136c0-0.22,0.18-0.402,0.402-0.402h1.892c0.221,0,0.401,0.181,0.401,0.402v7.24
		c0,1.891-0.968,2.837-2.903,2.837c-0.449,0-0.919-0.061-1.409-0.187c-0.49-0.124-0.78-0.24-0.78-0.24
		c-0.205-0.083-0.373-0.329-0.373-0.55v-1.186c0-0.221,0.249-0.442,0.496-0.276c0.372,0.224,0.814,0.303,1.193,0.303
		c0.328,0,0.564-0.071,0.736-0.175C280.514,337.981,280.605,337.685,280.605,337.507"/>
	<path fill="#080102" d="M239.934,329.835c-0.488,0-0.948,0.087-1.381,0.257c-0.434,0.172-1.017,0.698-1.017,0.698
		c-0.164,0.148-0.298,0.088-0.298-0.133v-3.035c0-0.22-0.18-0.402-0.401-0.402h-1.885c-0.221,0-0.402,0.181-0.402,0.402v9.547
		c0,0.22,0.18,0.401,0.402,0.401h1.885c0.22,0,0.401-0.18,0.401-0.401v-3.587c0.009-0.283,0.132-0.651,0.289-0.861
		c0.146-0.177,0.295-0.337,0.45-0.472c0.258-0.226,0.557-0.341,0.896-0.341c0.434,0,0.726,0.152,0.881,0.457
		c0.154,0.303,0.231,0.637,0.231,1.001c0,0.09-0.001,0.149-0.004,0.175l-0.003,0.028c-0.001,0.031-0.001,0.238-0.001,0.459v3.14
		c0,0.22,0.18,0.402,0.401,0.402h1.886c0.22,0,0.401-0.181,0.401-0.402v-4.265C242.666,330.858,241.755,329.835,239.934,329.835"/>
	<path fill="#080102" d="M264.66,331.257c-0.197-0.461-0.501-0.813-0.911-1.055c-0.41-0.244-0.919-0.366-1.527-0.366
		c-0.607,0-1.143,0.125-1.609,0.373c-0.465,0.249-0.915,0.618-1.347,1.105c-0.11-0.264-0.257-0.495-0.441-0.695
		c-0.184-0.199-0.39-0.355-0.617-0.47c-0.226-0.115-0.457-0.196-0.69-0.242c-0.234-0.047-0.48-0.071-0.74-0.071
		c-0.548,0-1.03,0.096-1.448,0.291c-0.418,0.195-0.935,0.664-0.935,0.664c-0.163,0.149-0.297,0.089-0.297-0.131v-0.288
		c0-0.221-0.18-0.401-0.401-0.401h-1.885c-0.221,0-0.401,0.18-0.401,0.401v6.8c0,0.22,0.18,0.401,0.401,0.401h1.885
		c0.22,0,0.401-0.18,0.401-0.401v-3.557c0-0.286,0.147-0.708,0.343-0.948c0.124-0.157,0.232-0.28,0.322-0.366
		c0.104-0.099,0.241-0.19,0.407-0.269c0.167-0.08,0.35-0.119,0.549-0.119c0.418,0,0.709,0.139,0.873,0.418
		c0.164,0.279,0.211,0.788,0.211,0.788c0.019,0.22,0.036,0.58,0.036,0.8v3.253c0,0.221,0.18,0.402,0.401,0.402h1.886
		c0.22,0,0.401-0.18,0.401-0.402v-3.556c0-0.296,0.154-0.734,0.36-0.971l-0.006-0.002c0.12-0.145,0.242-0.275,0.364-0.39
		c0.239-0.227,0.545-0.34,0.917-0.34c0.384,0,0.664,0.133,0.84,0.399c0.177,0.266,0.227,0.806,0.227,0.806
		c0.021,0.22,0.038,0.58,0.038,0.8v3.253c0,0.221,0.18,0.402,0.401,0.402h1.886c0.22,0,0.401-0.18,0.401-0.402v-4.235
		C264.954,332.277,264.858,331.719,264.66,331.257"/>
	<path fill="#080102" d="M273.23,333.046c0.138-0.022,0.533-0.089,0.866-0.089c0.493,0,0.885,0.068,1.175,0.204
		c0.292,0.137,0.497,0.311,0.617,0.519s0.18,0.43,0.18,0.664c0,0.284-0.102,0.56-0.307,0.825c-0.204,0.267-0.56,0.4-1.067,0.4
		c-0.428,0-0.933-0.123-1.513-0.366c-0.579-0.244-1.009-0.511-1.009-0.511c-0.187-0.118-0.341-0.032-0.341,0.188v1.831
		c0.489,0.334,1.024,0.582,1.606,0.747c0.583,0.165,1.192,0.247,1.829,0.247c0.795,0,1.472-0.157,2.027-0.467
		c0.556-0.312,0.971-0.725,1.247-1.244c0.276-0.517,0.415-1.072,0.415-1.665c0-0.572-0.14-1.101-0.422-1.586
		c-0.281-0.486-0.686-0.875-1.213-1.169c-0.528-0.294-1.14-0.441-1.837-0.441c-0.111,0-0.183,0.002-0.221,0.004
		c-0.038,0.003-0.099,0.008-0.187,0.016l-0.088,0.008c-0.089,0.01-0.164-0.163-0.164-0.384v-0.974c0-0.221,0.181-0.402,0.403-0.402
		h2.9c0.22,0,0.401-0.18,0.401-0.402v-1.377c0-0.22-0.18-0.401-0.401-0.401h-5.193c-0.221,0-0.403,0.18-0.403,0.401v5.213
		c0,0.175,0.143,0.301,0.318,0.292C272.936,333.123,273.083,333.07,273.23,333.046"/>
	<path fill="#080102" d="M266.216,334.668c0,1.891,0.967,2.837,2.904,2.837c0.315,0,0.771-0.102,1.019-0.223
		c0.247-0.12,0.401-0.32,0.401-0.541v-1.071c0-0.221-0.18-0.402-0.401-0.402h-0.144c-0.33,0-0.574,0.044-0.736-0.073
		c-0.162-0.116-0.261-0.263-0.295-0.437c-0.035-0.174-0.038-0.285-0.038-0.285c-0.008-0.221-0.015-0.581-0.015-0.802v-6.052
		c0-0.22-0.18-0.4-0.401-0.4h-1.893c-0.221,0-0.401,0.18-0.401,0.4V334.668z"/>
</g>
</svg>
